<svg xmlns="http://www.w3.org/2000/svg" viewBox="0 0 48 48">
	<path fill="#2196f3" d="M24 4A20 20 0 1 0 24 44A20 20 0 1 0 24 4Z">
	</path>
	<path fill="#cddc39" d="M12.8 9.93l-.99 2.96c-.05.14-.17.26-.32.31l-1.02.34c-.17.06-.31.21-.33.4L9 19.73c-.02.22-.26.34-.45.23L7.38 19.1c-.12-.11-.3-.13-.44-.06l-.29.18c.91-3.33 2.76-6.26 5.24-8.52.12-.11.24-.22.36-.31C12.43 10.23 12.62 10.08 12.8 9.93zM22.989 18.25c0 0-.701-1.594-.934-2.125C22.033 16.075 22 16 21.875 16c-.219 0-.407 0-.5 0C21 16 20.981 16.298 21 16.375c.064.265.234.629.227.875-.002.064-.035.191-.061.25-.015.034-.067.091-.083.125C21.054 17.684 21 17.809 21 17.875c0 .28 0 .771 0 1C21 19 21.125 19 21.125 19s.625 0 .75 0c.125 0 .25-.078.25-.078s.667-.391.792-.469c.062-.039.081-.09.083-.131C23.002 18.281 22.989 18.25 22.989 18.25zM15.78 8h1.17c.03 0 .07.01.1.02l.79.29c.1.04.22.04.32 0 0 0 .23-.09.46-.19C18.76 8.07 18.91 8 19 8c.06 0 .21.05.38.12.42.2 1.18.47 1.51.63C21 8.8 21.03 8.94 20.96 9.04L18 12.78C17.91 12.92 17.67 13 17.5 13h-1.28c-.14 0-.27.06-.36.17l-1.06 1.74c-.12.15-.36.11-.42-.07 0 0-.35-1.65-.36-1.71-.03-.17-.03-.34.02-.51l.84-4.12L15.78 8zM33.47 39.29l.4-1.88c0-.02.02-.04.03-.06l1.33-1.26c.11-.13 1.13-.65 1.65-1.21.62-.7 1-1.49 1.11-1.81.03-.08 0-.09-.08-.04C37.5 33.28 36.17 34 35.75 34c-.37 0-.42-.23-.5-.4 0-.01-.51-1.88-.87-3.22C34.15 29.56 34 29.03 34 29c0-.05.36-.7.5-.96C34.52 28 34.54 28 34.56 28c.03.01.05.03.06.04.5 1.34 1.43 3.71 1.43 3.71.08.17.2.25.33.25.5 0 3.28-2.03 4.24-2.87C40.89 28.89 41 28.75 41 28.5c0-.38-.25-.5-.38-.5h-1.37c-.17 0-.31-.08-.4-.22 0 0-.85-1.03-.85-1.16C38 26.5 38.75 26 38.88 26c.12 0 .87.62 1.12.62.22 0 1.54-.5 1.82-.6.03-.01.05-.04.05-.08C41.95 25.3 42 24.66 42 24c0-.39-.01-.78-.04-1.16-.02-.29-.04-.57-.07-.85 0-.01 0-.03-.01-.04-.63-5.53-3.78-10.32-8.27-13.15l-.57 1.16c-.06.14-.05.29.01.42l.9 1.12c.12.25.02.56-.24.68l-.92.46c-.1.05-.18.13-.23.23 0 0-.22.74-.39 1.23-.08.23-.13.4-.17.4s-.21-.21-.36-.37c-.35-.39-.82-.94-.84-.97-.1-.1-.23-.16-.37-.16h-2.16c-.13 0-.26.05-.35.14l-2.77 2.28c-.2.19-.2.51-.01.7l1.11 1.75c.1.14.29.17.43.08l1.18-.85c.09-.06.15-.16.18-.27l.31-1.7c0 0 .02-.13.15-.13h.62c.18 0 .26.08.26.08l1.49 1.39c.18.19.17.49-.01.68l-2.84 2.72c-.09.09-.27.12-.4.13 0 0-.36 0-.49 0-.14 0-.2-.12-.2-.12l-.24-.4c0 0-.04-.08-.16-.16-.07-.05-.41-.23-.53-.31-.04-.02-.08-.01-.1.02-.16.22-.72 1.07-.9 1.31-.02.04-.09.08-.12.1-.26.11-.58.24-.7.29-.04.01-.1.03-.14.03-.54.06-1.73.2-1.99.23C22 21 22 21.06 22 21.06s0 .33 0 .39c0 .05.04.07.04.07s.69.36.93.48c.02.01.03.02.03.04 0 .02-.01.05-.02.06-.12.24-.6.78-.6.78C22.28 22.97 22.13 23 22 23h-1.5c-.28 0-.5.25-.5.5 0 .52.4 1.52.57 2.01.1.27.28.49.55.49h1.03c.13 0 .25-.05.35-.15l1.37-1.71c.07-.05.17-.13.24-.18 0 0 1.82-.73 2.39-.95C26.51 23 26.52 23 26.53 23s.03.01.04.03c.15.25.32.54.4.66.02.04.03.04.03.15v.6c0 .06-.03.09-.03.09l-.41.41c0 0-.03.02-.03.04 0 .01.01.02.05.02h1.29c.07 0 .13-.06.13-.13 0 0 0-1.08 0-1.24 0-.17.13-.26.13-.26s.24-.28.3-.35c.07-.06.09.02.09.02l.46 1.41c.01.03.04.06.07.07 0 0 .78.42.87.47C29.94 25 29.95 25 29.96 25c.03 0 .04-.03.04-.05 0-.01 0-.02 0-.02s0-.78 0-.93.07-.21.16-.25c.18-.07.49-.18.66-.26.05-.02.19-.05.22-.22.07-.32.21-1.13.3-1.6.01-.08.09-.22.17-.27.18-.11.49-.3.66-.38.14-.07.25.06.25.06s.42.73.5.86c.03.04.06.06.09.06.05 0 .09-.04.11-.06.17-.17.56-.68.76-.9.03-.03.07-.04.1-.04s.06.02.07.04c.26.51.76 1.49.93 1.84C35 22.92 35 22.94 35 22.96 34.99 23 34.94 23 34.91 23h-1.04c-.16 0-.32.05-.45.14l-2.29 1.53c0 0-.13.08-.13.21v.62c0 .12.13.22.13.22l.25.19c0 0 .12.09.24.09.13 0 1.73-.12 1.73-.12.02 0 .03-.01.05-.02 0 0 1.35-.77 1.48-.84C35 24.95 35 25.08 35 25.08v1.22c0 .05-.02.09-.06.11l-1.92 1.08c-.01 0-.03.01-.05.01L28.5 28h-.25l-2.13-.88c0 0-.12-.05-.12-.17v-.89c0-.08-.1-.06-.13-.05-.44.27-1.27.84-1.46.96C24.39 26.99 24.36 27 24.33 27h-1.3c-.02 0-.04 0-.05.01l-3.08 1.22c-.14.06-.26.16-.32.3l-1.51 3.04C18.02 31.65 18 31.74 18 31.83c0 .06.01.12.02.17l.71 2.89c.06.21.21.38.41.45l2.09.63c.13.04.27.04.39 0l2.13-.94c.15-.05.31-.03.44.05 0 0 .42.41.56.55.13.12.25.18.25.18s.8.22.86.25c.13.06.14.13.14.19v1.62c0 .08.03.16.09.22.18.18.66.58.86.79.07.07.07.18 0 .24 0 0-.41.63-.49.75C26.38 40 26.35 40 26.49 40.12c.23.22.85.93 1.31 1.47L33.47 39.29zM20.089 17.024c.098-.023.31-.04.402 0 .04.017.101.087.116.127.066.181-.033.582-.109.76-.022.052-.095.145-.141.18-.2.154-.679.406-.937.409-.069.001-.201-.055-.264-.083-.04-.018-.119-.069-.138-.107-.029-.059-.02-.198 0-.26.093-.288.543-.761.803-.935C19.88 17.076 20.02 17.04 20.089 17.024z">
	</path>
</svg>
