<svg xmlns="http://www.w3.org/2000/svg" viewBox="0 0 48 48">
	<path fill="#2196f3" d="M44,24c0,11-9,20-20,20S4,35,4,24S13,4,24,4C35,4,44,13,44,24">
	</path>
	<path fill="#cddc39" d="M25.6,41.4l-1.4-0.1v-1l0.4-0.7l-0.1-0.9l0.5-0.8l0.3-1.9c0.1-0.7-0.2-1.4-0.8-1.8l0,0 c-0.3-0.2-0.5-0.5-0.7-0.8l-0.6-1.4l-0.6-0.4v-0.5l0.2-0.6l0.1-0.6l0.8-0.7l-1.2-1.1c-0.1-0.1-0.1-0.1-0.2-0.2l-0.9-0.7 c0,0-0.1,0-0.1-0.1l-1.5-1c-0.1-0.1-0.2-0.1-0.4-0.2l-0.9-0.3c-0.1,0-0.2-0.1-0.3-0.1l-1.6-0.9c-0.2-0.1-0.4-0.3-0.5-0.5l-1-1.3 c-0.1-0.2-0.2-0.3-0.3-0.5l-0.7-2c-0.1-0.2-0.2-0.4-0.3-0.5l-0.1-0.2c-0.2-0.3-0.4-0.7-0.4-1.1v-0.5c0-0.2,0-0.4,0.1-0.6l0.7-1.8 c0.1-0.3,0.1-0.6,0.1-0.9l-0.5-3.3l-0.8-0.2l-1.1,0.7l-0.2-0.7l2.2-1.6V9.1l1.2-0.5c0.4-0.2,0.8-0.2,1.2-0.1l3.9,1l0.8,0.1l1.3-0.1 l0.1,0.7l-1.9,2.1l0.3,0.8l0.6-0.1l1.4,0.8l0.7-0.3l0.2-2.1l0.8,0l1.3,0.6c0.3,0.1,0.6,0.4,0.8,0.7l0.2,0.3 c0.1,0.1,0.2,0.3,0.4,0.4l0.8,0.7c0.2,0.2,0.3,0.3,0.5,0.5l0.8,1.5l-0.4,0.4l-1.3,0.4L26.7,17L25.3,18c0,0-0.1,0.1-0.1,0.1 l-0.4,0.3c-0.3,0.2-0.5,0.5-0.6,0.8l-0.1,0.2c-0.1,0.3-0.3,0.6-0.5,0.8l-1.2,1.1l-0.5,0.3l-3.4,0.6l-0.1,0.3 c-0.1,0.5,0,1.1,0.4,1.5l0.6,0.7c0.2,0.2,0.5,0.4,0.8,0.5l1,0.4c0.2,0.1,0.4,0.2,0.6,0.4l2,1.9l0.4-0.5l0.5-0.3 c0.4-0.2,0.8-0.3,1.2-0.2l1.6,0.3l0.6,0.4l1.7,0.9l3.3,1.9c0.1,0,0.2,0.1,0.2,0.2l0.7,0.6v0.7l-0.9,1c-0.1,0.1-0.2,0.3-0.3,0.4 l-0.7,1.5c-0.1,0.2-0.3,0.5-0.5,0.6l-1.5,1.2c0,0-0.1,0.1-0.1,0.1l-1.7,1.5l-0.6,0.5L27,39.1l-0.4,0.2L26,39.8l-0.3,0.6L25.6,41.4z">
	</path>
	<path fill="#cddc39" d="M24,7l0.6,0.6l2.6,2.3l0.4,0.8l1.1,1.1l0.6,0.3l0.3-0.3V10l0.5-0.7l0.2-0.5l-1.8-1.5c-0.2-0.2-0.4-0.3-0.7-0.4 l-0.7-0.4c-0.4-0.2-0.7-0.3-1.1-0.3l0,0c-0.5,0-0.9,0-1.4,0.2l-0.4,0.1L24,7z">
	</path>
	<path fill="#cddc39" d="M32.9,8.3l2.9,5.5l2.1,1.9v0.6l-0.5,0.2l0.5,1.8h0.7l0.3-0.5l-0.2-1.7l0.7-0.3l0.9,1.8l0.8-0.5 C41,17.2,37.3,9.3,32.9,8.3z">
	</path>
	<path fill="#cddc39" d="M39.2,33.8c0,0,2.1-4.7,2-7.1l-0.5-0.4L40.1,27l-0.8,0.4L38,25.6v-4.2l0.6-0.8l-0.3-0.8l0.7-0.8l1.3-0.5l0.8,1 l0.2-0.7l0.4,0.1c0.8,2.7,0.9,5.5,0.5,8.2c-0.4,2.4-1.2,4.6-2.4,6.7H39.2L39.2,33.8z">
	</path>
</svg>
