<svg xmlns="http://www.w3.org/2000/svg" width="2500" height="2500" viewBox="0 0 192.756 192.756"><g fill-rule="evenodd" clip-rule="evenodd"><path fill="transparent" d="M0 0h192.756v192.756H0V0z"/><path d="M93.529 67.368s0-.089-.089-.089c0-.089 0-.089-.09-.179-.179-.09-.447-.09-.715 0v.179c-.269.089-.537.179-.806 0-.089 0-.269-.089-.357-.089-.09-.269-.537-.179-.805-.089 0 0-.09 0-.09.089h-.358c-.179-.089-.358-.179-.537-.179-.268-.09-.626.626-.984.805-.089 0-.269-.805-.358-.805-.089-.09-.179-.09-.269-.09h-.357c-.537-.089-1.074-.089-1.611-.089-.358-.089-.715-.089-.984 0-.089 0-.179-.089-.179 0h-.269c-.09 0-.179-.089-.268-.089h-.179c-.269-.089-.448-.089-.716-.089-.447-.09-.984-.09-1.431-.09 0 0-.09 0-.09.09-.179 0-.358 0-.626-.09-.179 0-.268 0-.447-.089 0 0-.09-.09-.18-.09h-.178c-.895-.179-1.7-.268-2.595-.358h-.358c-.447-.089-.895-.089-1.343-.089-.088 0-.088 0-.178.089-.179-.089-.269.358-.358.358-.089-.089-.179-.625-.269-.537h-.089c-.09 0-.269-.089-.448-.089 0 0-.089 0-.089-.09-.089-.09-.268 0-.358 0h-.268c-.089 0-.179-.09-.269-.179-.09 0-.09.089-.179.089v.09h-.089c-.269 0-.447-.358-.717-.358-.625-.179-1.252-.269-1.878-.358-.358-.09-.715-.179-1.163-.179-.09 0-.09.089-.179.179h-.089c-.269 0-.627-.09-.895-.269h-.09-.09a2.942 2.942 0 0 0-.715-.537c-.179-.09-.357-.179-.626-.179-.089 0-.269-.089-.447-.089h-.089c-.09-.089-.269-.179-.358-.269-.179 0-.269-.089-.447-.089-.09 0-.179-.089-.269-.089h-.269l-.537-.537c-.269-.09-.358-.179-.537-.269-.179 0-.269 1.61-.358 1.61-.089 0-.179-1.7-.179-1.7-.179-.09-.179 0-.269 0h-.089c-.357-.267-.626-.536-.536-.984-.537-.447-.358-.805-.179-1.163.089-.179.536-.448.715-.626.269-.357.626-.537.984-.716.179-.179.537-.269.805-.358.537-.179.895-.447 1.431-.626.537-.179 1.074-.179 1.521-.448.179-.089.447-.179.627-.268.626-.269 1.252-.179 1.878-.269.537-.179 1.074-.268 1.611-.358.089 0 .268-.179.268-.269.089-.089.269-.268.089-.268.09-.089-.179-.179-.179-.179 0-.089-.178-.179-.268-.089-.358.089-.716 0-.984.089-.09.09-.179.269-.269.179-.358-.089-.626 0-.984.179-.179 0-.448-.089-.716.179 0 0-.09-.09-.18-.09-.715-.089-1.431.179-2.147.358-.089 0-.179.357-.269.268-.358-.268-.626-.179-.805.179h-.178c-.089 0-.179-.09-.179-.09a2.673 2.673 0 0 0-1.7.358c-.179.089 0 .358-.089.447h-.448c-.089-.089-.179-.089-.269-.089-.357-.179-.715.179-1.073.537h-.09c-.089-.179-.357-.179-.537-.089-.895.447-1.789.984-2.415 1.789a2.204 2.204 0 0 0-.358.805c-.179.179.179.537 0 .716 0 .09-.089.179-.179.179 0 .358.179.625.268.895.09.268.269.447.447.716.089.269.358.447.626.537.179.089.269.179.537.269 0 .089 0 .179.09.268.179.358.626.537.984.806.269.179.448.268.626.448.179.089.358.089.447.178.09.089.179.179.269.179.09.089.179.089.179 0l.537.268c.179.179.447.358.716.448 0 .089.089.089.089.179.269.09.447 0 .716.09h.089c.089.089.269.179.358.179.089.089.269.179.447.269.089.089.269.179.448.268 0 0 .089 0 .179.089.268.09.715 0 .984.179.089.089.179.268.268.268.179.09.358.179.447.179.716.537 1.611.626 2.416.895.448.179.984.089 1.432.179v.09c.179 0 .358.089.537.179.269.089.537.269.806.358 1.073.268 2.057.447 3.041.715.716.18 1.343.18 2.058.358.448.09.806.269 1.342.269.179-.09.447-.269.626-.179.09.089.18.089.269.179.089 0 .089 0 .089.089h.179c.984.358 2.147.537 3.221.537.18-.089.358-.089.537-.179.269-.179.358-.716.716-.806l.09.269c.089.09.089.09.089.179 0 .09 0 .179.09.179.089.089.179.269.269.358h.089l.09.089c.358.089.716.179 1.074.179.358-.09.626-.179.895-.09h.537c0 .09.09.09.09.09.179 0 .358 0 .537.179.089.179.179.269.269.448v.447c0 .089.089.178.089.268v.179c0 .179-.089.269-.089.358.089.089.089.089.179.089 0 .179 0 .358.089.627-.089.268-.089.537-.179.805 0 .179-.089.358-.089.537v1.521l.089.089v.09c0 .089.089.179.089.179.089.09.089.179.179.269 0 0 0 .089.089.089 0 .09.089.18.089.269.089.09 0 .179 0 .179-.089.089-.179.179-.179.269h-.09c-.089 0-.089.089-.179.268v.179c-.089.358 0 .625 0 .984.089.626.089 1.252.179 1.878v.447l.09.09c0 .447.089.984.089 1.432 0 .269-.089.447 0 .716l.089.089c0 .179.089.358.089.537-.089.09-.089.09-.089.179v.269c.089 0 .089.089.179.089 0 .179.626.269.715.358 0 .179-.626.447-.626.626h-.089c.179.269-.09.448 0 .626v.269c0 .268 0 .537.089.805v.537c0 .537.089 1.074.089 1.611.089.178.089.268.089.447.09 1.074.179 2.236.358 3.4 0 .537.089.984.089 1.431.09.805.179 1.699.358 2.506 0 .357 0 .805.089 1.162-.089.09-.089.18-.089.27.089.088.089.268.089.357.089.447.089.895.179 1.342 0 .537 0 .984.179 1.432V104.232c.089 0 .089 0 .089.09l-.089.09c0 .268 0 .982.179 1.252 0 .09.09-.447.179-.537 0-.18.09-.447.09-.627.089-.088.089-.178.089-.268.089-.537.179-1.164.269-1.699.089-.627-.089-1.164.089-1.791.09-1.252.179-2.326.269-3.488-.269-.447-.358-.984-.179-1.432.089-.089.089-.179.089-.269.09-.089.179-.268.179-.357.089-2.953.358-5.815.447-8.768a18.2 18.2 0 0 0 0-3.132s-.089 0-.089-.089c0-.09-.09-.09-.09-.179-.089-.358-.089-.716 0-.984.09-.179.269-.447.269-.626.089-.358.089-.626.089-.985-.089-.357-.447-.805-.358-1.252.09-.269.269-.537.269-.805.089-.537.179-1.074.089-1.61 0-.269-.089-.537-.089-.806.089-.358.179-.626.179-.984-.089-.448.179-.895 0-1.253-.179-.447-.269-.895 0-1.342.004-1.613.451-3.313-.085-5.013zM100.598 67.279c.088-.895.178-1.79.178-2.684 0-.537-.178-1.074-.178-1.611a6.72 6.72 0 0 0 0-1.879v-.179c0-.089-.09-.269-.09-.447-.09-.179-.09-.447 0-.716 0-.179.09-.537.09-.805 0-.179 0-.358-.09-.537v-.269c0-.09-.09-.089-.09-.179v-.089c0-.626.18-1.163.09-1.789-.09-2.147-.18-4.206-.27-6.263-.09-.626-.357-1.164-.268-1.789.09-.358 0-.626 0-.895 0-.537-.09-.984-.18-1.432-.088-1.521.09-2.863-.178-4.384-.09-.178-.09-.358-.18-.537 0-.358-.09-.626-.178-.895 0-.357.178-.715.088-1.074 0-.089-.447-.179-.447-.268 0-.179.359-.268.359-.358-.09-.716 0-1.521-.18-2.326v-.179c-.09-.269-.09-.537-.18-.805-.088-.09-.178-1.074-.357-1.074-.178-.09-.27.984-.27 1.074 0 .268-.088.537-.088.805-.27 1.163-.18 2.326-.27 3.489 0 .179 0 .269-.088.447 0 .179 0 .447-.09.626-.09.358-.09.805-.18 1.163-.09.984.09 1.878-.09 2.863v.09c0 .179-.088.268-.088.357 0 .269 0 .447.088.716v.627l-.178.178v.538c-.18.894.09 1.7 0 2.505 0 .179-.09.358-.09.537-.09 0-.09.089-.09.089 0 .09.357.805.447.895h-.447c0 .089-.179 0-.179 0 0 .268.179.179.089.358-.089.447-.268.895-.089 1.431.089.358 0 .716 0 1.074v.269c-.179 1.252-.447 2.505-.268 3.758.089.358.089.716 0 .984v.269c-.09.089-.09.179 0 .268 0 .448 0 .806-.09 1.164-.089.358-.178.715-.089 1.074.089.805.179 1.61.089 2.505 0 .269-.089.626-.178.895-.09 2.863-.09 5.727 0 8.59.178 1.789 0 3.668.178 5.457.179 2.058 0 4.116.09 6.174.179 2.684.268 5.368.447 7.963 0 .537.27.984.18 1.432-.09.447-.18.984 0 1.431 0 .089.268.089.268.179 0 0 .27 0 .357.09l-.535.358c.088.446.088.894.088 1.253 0 .088.09.268.09.357 0 .178 0 .357.09.447.09.895-.09 1.699.09 2.594v.18c.09.447.09.895.09 1.342-.09.357-.09.805 0 1.254 0 .447.088.895.268 1.252v.447h.09c.088.537-.18.984-.09 1.521 0 .088 0 .268.09.357 0 .268.088 1.432.357 1.521.18.088.447-.984.357-1.254v-.178c.18-.447.27-.807.09-1.254 0-.088 0-.268-.09-.357.09 0 .09 0 .09-.09h-.09c0-.09 0-.268.09-.357v-.09c0-.09 0-.09.09-.09.09-.178.09-.447.18-.625v-.09c.178-.537-.09-1.074.088-1.611.18-.984.18-1.789.27-2.773 0-.178-.09-.357-.09-.537.09-.178.09-.268.09-.357.268-.895.357-1.699.178-2.506 0-.356-.178-.625-.088-.894 0-.357.178-.626.178-1.073.18-.805 0-1.61.09-2.505 0-.268.178-.626.178-.895.09-1.789.359-3.399.27-5.189 0-.268-.09-.626 0-.895 0-.269 0-.626.09-.895s.09-.536.09-.805c-.09-.268-.18-.537-.18-.805.18-.626-.715-1.074-.805-1.7 0-.089.984-.179.984-.269h-.09v-.268c0-.179-.09-.448 0-.626.268-1.342.178-2.505.09-3.758v-.089-.179c0-.716-.09-1.521 0-2.327.088-.357.088-.805.088-1.163 0-.805 0-1.7-.088-2.505.088-.089.088-.179 0-.179 0-.179-.359-.358-.359-.537 0-.089.537-.268.447-.357-.088 0-.088-.09-.088-.09.002-.539.002-1.076.002-1.612zM138.711 61.016c0-.179-.357-.179-.357-.269.09-.716-.357-1.163-.895-1.521-.18 0-.357 0-.537-.089-.09-.089-.09-.268-.268-.447-.27-.179-.447-.089-.627.089h-.18c-.268-.089-.537 0-.537-.268-.088 0 .18-.269 0-.358-.268-.089-.625-.269-.893-.358-.18 0-.359-.179-.449 0l-.088.089c-.09 0-.27.089-.449.089 0-.089 0-.089-.088-.089 0-.269-.09-.537-.27-.447-.178 0-.268.179-.447.179h-.09c-.268-.179-.268-.447-.537-.537-.805-.268-1.609-.179-2.414-.447-.357-.089-.717-.089-1.074-.179-.178 0-.268-.089-.357-.089-.357-.179-.717-.089-.984.089v.09c-.09 0-.268.089-.357.089.178-.089 0-.269-.09-.447-.18-.089-.357-.089-.537-.089-.09.089-.18.179-.18.268h-.178c-.09.089-.18.089-.18.179.09.179.18.269.27.269.268.179.535-.09.805 0 .18.089.357.268.537.357.627.09 1.162.447 1.699.358.27 0 .447-.179.717 0 .268.089.357.358.535.447 1.164.448 2.236.895 3.311 1.611.537.357.984.984.717 1.7-.357.895-1.254 1.431-2.148 1.878-.178.089-.357.358-.535.537-.18.179-.447.268-.717.357h-.09c0-.089-.09-.179-.178-.179-.18 0-.359 0-.537.089-.09 0-.27 0-.357.089-.717.179-1.432.358-2.148.716h-.625c-.18 0-.27.089-.449.089-.178.179-.357.269-.625.358 0-.09-.09-.09-.09-.09-.18-.089-.357 0-.537.09h-.268c-.18.089-.27.268-.359.268h-.357c-.178 0-.357.089-.537.089v-.089c-.895 0-1.789.269-2.684.358v.089c-.268 0-.357.447-.627.537-.088.089-.268-.358-.357-.269 0-.089-.09-.089-.09-.089-.088-.179-.268 0-.357.089h-.268c-.09-.089-.18-.089-.27-.089h-.625l-1.611.268h-.18c-.088 0-.088.09-.088.09-.18.089-.27.089-.447.089-.09.09-.18.09-.27.09-.09-.09-.268-.179-.447-.09-.09 0-.09.09-.09.09h-.537l-.088-.09h-1.074c-.357 0-.805 0-1.164.09-.535.089-.895.447-1.43.447-.09 0-.09 0-.18-.09 0-.09 0-.09-.09-.179-.268-.089-.447.089-.715.179-.18.09-.359.09-.447.179h-.449c0-.089 0-.179-.088-.179-.18-.09-.359-.09-.627 0-.09-.09-.18-.09-.268 0-1.344.09-2.596 0-3.938 0-.178 0-.27 0-.447.09-.09.089.27.357.27.357-.092.09-.449 0-.449.09-.178.984-.178 1.879-.178 2.773.088.716.268 1.521.178 2.237 0 1.252.27 2.505.09 3.847 0 .179-.09.358-.09.537.09.268.18.447.18.626.178.984-.18 1.969 0 2.862 0 .359.178.717.178 1.075-.178 1.252-.088 2.505-.088 3.757 0 .179.088.358.088.626.182.358-.088.716 0 1.074 0 .089.092.179.092.269.178.447.178.895.178 1.342-.178.358-.27.626-.27.984.182.448.182.895.359 1.253.178.448.178.984.09 1.432 0 .179-.09.358-.09.537-.268 2.058.268 3.937.357 5.906 0 .178-.09.537-.09.805.18.627 0 1.162.27 1.789 0 .09.088.27.178.357 0 .09.09.18.09.18v.18c-.09.088-.09.268-.18.357-.088.09-.088.268 0 .447 0 .09 0 .18.09.357v.09c0 .18-.178.357-.09.537 0 .09 0 .09.09.18 0 .178 0 .715.09.805.09.178.09.715.18.715.357 0 .357-1.252.268-1.609.09-.18 0-.359 0-.627.09 0 .09-.09.09-.18 0-.178 0-.268-.09-.357 0-.09.09-.178.09-.268-.09-.09-.18-.27-.18-.359h.18c0-.088.178-.088.178-.178 0-.27.09-.537.09-.805 0-.359-.09-.717 0-1.074 0 0 .09-.09.09-.18s0-.18-.09-.18c.09-.178.09-.268 0-.445v-.537c.09 0 .18 0 .18-.09.09-.18.18-.357.18-.627.088-.09.088-.268.088-.537 0-.268-.268-.537-.178-.894.09-.09.178-.179.268-.358v-.447-.358-.447c.09-.179.09-.358 0-.626 0-.09.09-.269.09-.358l.09-.089v-.448c0-.179.09-.447.09-.626v-.089c.088-.269.088-.537.178-.805 0-.179.09-.358.09-.537.09-.537-.09-.895-.18-1.432-.088-.179 0-.358.09-.626.18-.269.27-.537.27-.716v-.089a.58.58 0 0 0 0-.537v-.448c0-.09 0-.089-.09-.089-.09-.358-.18-.626-.18-.895 0-.179.09-.358.18-.537.09 0 .268-.089.268-.179 0-.179 0-.269.09-.358v-.089-.269c0-.269 0-.447-.09-.626-.09-.09-.09-.18-.09-.269-.088-.09-.088-.179 0-.358l.09.09c0-.179.09-.358.09-.537.09-.357.18-.716.18-1.074v-1.521a.76.76 0 0 1 0-.626c.09-.269.09-.447.09-.716.088-.179.088-.269.088-.447.09-.716-.088-1.342-.088-1.969.088-.089.088-.179.088-.268v-.895c.09-.179.09-.358 0-.448 0-.179-.088-.357-.088-.537-.09-.179 0-.358.088-.537v-.358c.09-.179.09-.269 0-.447v-.358s.09-.089 0-.179v-.089c0-.09 0-.269.09-.358 0-.179.18-.179.27-.179.895 0 1.699.09 2.684 0 .09-.089.18-.089.357-.179.627-.269 1.164.179 1.789 0 .27 0 .627-.089.895-.089 1.342-.269 2.506-.269 3.848-.626.09 0 .09 0 .18-.089h.09l.088-.09c.18-.089.359-.178.447-.268 0-.09-.088-.179 0-.179 0-.089 0-.089.09-.179 0-.089 0-.089.09-.179 0-.089-.268-.268-.268-.447.088 0 .178-.447.178-.626 0 .089.359.357.359.537a.76.76 0 0 0 0 .626c.088.357.447.537.535.537.807.178 1.432-.269 2.148-.448.178 0 .268-.089.447-.089.268-.179.537-.179.805-.269.09 0 .18-.089.18-.089h.088c.09 0 .09 0 .18-.089.268-.09.537-.09.895-.179h.09c.447-.089.895-.089 1.342-.179.18-.089.357-.179.447-.268h.27c.088 0 .178-.179.178-.269v-.089h.18c.268-.179.537.089.895 0 .18 0 .447-.179.627-.269.268-.09.447-.268.625-.447.18-.09.27-.09.359-.179.447-.09.805-.09 1.162-.179.18 0 .268-.089.357-.179.18 0 .27-.089.447-.179.09 0 .18-.089.18-.179.09-.09.268.089.357 0 .09 0 .18-.09.268-.179.27 0 .447-.179.717-.448.09 0 .18-.089.268-.089h.18v-.089c.357-.089.627-.179.984-.269 0-.09.09-.09.09-.09.268-.089.537-.268.715-.537 0-.089.09-.179.09-.269h.09c.178 0 .447-.089.627-.179h.088c.627-.269 1.164-.716 1.611-1.252.09-.09.09-.179.09-.269v-.089c.09-.089 0-.626.09-.716 0-.179.447.179.715.089.357 0 0-.447.09-.626 0-.179.18-.179.357-.179.09-.089.09-.179.09-.179.079-.443-.01-.801-.19-1.159zm-8.768-4.026h.09-.09z" fill="#fff"/></g></svg>