<svg xmlns="http://www.w3.org/2000/svg" width="2500" height="2500" viewBox="0 0 192.756 192.756"><g fill-rule="evenodd" clip-rule="evenodd"><path fill="transparent" d="M0 0h192.756v192.756H0V0z"/><path d="M93.529 67.368s0-.089-.089-.089c0-.089 0-.089-.09-.179-.179-.09-.447-.09-.715 0v.179c-.269.089-.537.179-.806 0-.089 0-.269-.089-.357-.089-.09-.269-.537-.179-.805-.089 0 0-.09 0-.09.089h-.358c-.179-.089-.358-.179-.537-.179-.268-.09-.626.626-.984.805-.089 0-.269-.805-.358-.805-.089-.09-.179-.09-.269-.09h-.357c-.537-.089-1.074-.089-1.611-.089-.358-.089-.715-.089-.984 0-.089 0-.179-.089-.179 0h-.269c-.09 0-.179-.089-.268-.089h-.179c-.269-.089-.448-.089-.716-.089-.447-.09-.984-.09-1.431-.09 0 0-.09 0-.09.09-.179 0-.358 0-.626-.09-.179 0-.268 0-.447-.089 0 0-.09-.09-.18-.09h-.178c-.895-.179-1.7-.268-2.595-.358h-.358c-.447-.089-.895-.089-1.343-.089-.088 0-.088 0-.178.089-.179-.089-.269.358-.358.358-.089-.089-.179-.625-.269-.537h-.089c-.09 0-.269-.089-.448-.089 0 0-.089 0-.089-.09-.089-.09-.268 0-.358 0h-.268c-.089 0-.179-.09-.269-.179-.09 0-.09.089-.179.089v.09h-.089c-.269 0-.447-.358-.717-.358-.625-.179-1.252-.269-1.878-.358-.358-.09-.715-.179-1.163-.179-.09 0-.09.089-.179.179h-.089c-.269 0-.627-.09-.895-.269h-.09-.09a2.942 2.942 0 0 0-.715-.537c-.179-.09-.357-.179-.626-.179-.089 0-.269-.089-.447-.089h-.089c-.09-.089-.269-.179-.358-.269-.179 0-.269-.089-.447-.089-.09 0-.179-.089-.269-.089h-.269l-.537-.537c-.269-.09-.358-.179-.537-.269-.179 0-.269 1.61-.358 1.61-.089 0-.179-1.7-.179-1.7-.179-.09-.179 0-.269 0h-.089c-.357-.267-.626-.536-.536-.984-.537-.447-.358-.805-.179-1.163.089-.179.536-.448.715-.626.269-.357.626-.537.984-.716.179-.179.537-.269.805-.358.537-.179.895-.447 1.431-.626.537-.179 1.074-.179 1.521-.448.179-.089.447-.179.627-.268.626-.269 1.252-.179 1.878-.269.537-.179 1.074-.268 1.611-.358.089 0 .268-.179.268-.269.089-.089.269-.268.089-.268.09-.089-.179-.179-.179-.179 0-.089-.178-.179-.268-.089-.358.089-.716 0-.984.089-.09.09-.179.269-.269.179-.358-.089-.626 0-.984.179-.179 0-.448-.089-.716.179 0 0-.09-.09-.18-.09-.715-.089-1.431.179-2.147.358-.089 0-.179.357-.269.268-.358-.268-.626-.179-.805.179h-.178c-.089 0-.179-.09-.179-.09a2.673 2.673 0 0 0-1.7.358c-.179.089 0 .358-.089.447h-.448c-.089-.089-.179-.089-.269-.089-.357-.179-.715.179-1.073.537h-.09c-.089-.179-.357-.179-.537-.089-.895.447-1.789.984-2.415 1.789a2.204 2.204 0 0 0-.358.805c-.179.179.179.537 0 .716 0 .09-.089.179-.179.179 0 .358.179.625.268.895.09.268.269.447.447.716.089.269.358.447.626.537.179.089.269.179.537.269 0 .089 0 .179.09.268.179.358.626.537.984.806.269.179.448.268.626.448.179.089.358.089.447.178.09.089.179.179.269.179.09.089.179.089.179 0l.537.268c.179.179.447.358.716.448 0 .089.089.089.089.179.269.09.447 0 .716.09h.089c.089.089.269.179.358.179.089.089.269.179.447.269.089.089.269.179.448.268 0 0 .089 0 .179.089.268.09.715 0 .984.179.089.089.179.268.268.268.179.09.358.179.447.179.716.537 1.611.626 2.416.895.448.179.984.089 1.432.179v.09c.179 0 .358.089.537.179.269.089.537.269.806.358 1.073.268 2.057.447 3.041.715.716.18 1.343.18 2.058.358.448.09.806.269 1.342.269.179-.09.447-.269.626-.179.09.089.18.089.269.179.089 0 .089 0 .089.089h.179c.984.358 2.147.537 3.221.537.18-.089.358-.089.537-.179.269-.179.358-.716.716-.806l.09.269c.089.09.089.09.089.179 0 .09 0 .179.09.179.089.089.179.269.269.358h.089l.09.089c.358.089.716.179 1.074.179.358-.09.626-.179.895-.09h.537c0 .09.09.09.09.09.179 0 .358 0 .537.179.089.179.179.269.269.448v.447c0 .089.089.178.089.268v.179c0 .179-.089.269-.089.358.089.089.089.089.179.089 0 .179 0 .358.089.627-.089.268-.089.537-.179.805 0 .179-.089.358-.089.537v1.521l.089.089v.09c0 .089.089.179.089.179.089.09.089.179.179.269 0 0 0 .089.089.089 0 .09.089.18.089.269.089.09 0 .179 0 .179-.089.089-.179.179-.179.269h-.09c-.089 0-.089.089-.179.268v.179c-.089.358 0 .625 0 .984.089.626.089 1.252.179 1.878v.447l.09.09c0 .447.089.984.089 1.432 0 .269-.089.447 0 .716l.089.089c0 .179.089.358.089.537-.089.09-.089.09-.089.179v.269c.089 0 .089.089.179.089 0 .179.626.269.715.358 0 .179-.626.447-.626.626h-.089c.179.269-.09.448 0 .626v.269c0 .268 0 .537.089.805v.537c0 .537.089 1.074.089 1.611.089.178.089.268.089.447.09 1.074.179 2.236.358 3.4 0 .537.089.984.089 1.431.09.805.179 1.699.358 2.506 0 .357 0 .805.089 1.162-.089.09-.089.18-.089.27.089.088.089.268.089.357.089.447.089.895.179 1.342 0 .537 0 .984.179 1.432V104.232c.089 0 .089 0 .089.09l-.089.09c0 .268 0 .982.179 1.252 0 .09.09-.447.179-.537 0-.18.09-.447.09-.627.089-.088.089-.178.089-.268.089-.537.179-1.164.269-1.699.089-.627-.089-1.164.089-1.791.09-1.252.179-2.326.269-3.488-.269-.447-.358-.984-.179-1.432.089-.089.089-.179.089-.269.09-.089.179-.268.179-.357.089-2.953.358-5.815.447-8.768a18.2 18.2 0 0 0 0-3.132s-.089 0-.089-.089c0-.09-.09-.09-.09-.179-.089-.358-.089-.716 0-.984.09-.179.269-.447.269-.626.089-.358.089-.626.089-.985-.089-.357-.447-.805-.358-1.252.09-.269.269-.537.269-.805.089-.537.179-1.074.089-1.61 0-.269-.089-.537-.089-.806.089-.358.179-.626.179-.984-.089-.448.179-.895 0-1.253-.179-.447-.269-.895 0-1.342.004-1.613.451-3.313-.085-5.013zM100.598 67.279c.088-.895.178-1.79.178-2.684 0-.537-.178-1.074-.178-1.611a6.72 6.72 0 0 0 0-1.879v-.179c0-.089-.09-.269-.09-.447-.09-.179-.09-.447 0-.716 0-.179.09-.537.09-.805 0-.179 0-.358-.09-.537v-.269c0-.09-.09-.089-.09-.179v-.089c0-.626.18-1.163.09-1.789-.09-2.147-.18-4.206-.27-6.263-.09-.626-.357-1.164-.268-1.789.09-.358 0-.626 0-.895 0-.537-.09-.984-.18-1.432-.088-1.521.09-2.863-.178-4.384-.09-.178-.09-.358-.18-.537 0-.358-.09-.626-.178-.895 0-.357.178-.715.088-1.074 0-.089-.447-.179-.447-.268 0-.179.359-.268.359-.358-.09-.716 0-1.521-.18-2.326v-.179c-.09-.269-.09-.537-.18-.805-.088-.09-.178-1.074-.357-1.074-.178-.09-.27.984-.27 1.074 0 .268-.088.537-.088.805-.27 1.163-.18 2.326-.27 3.489 0 .179 0 .269-.088.447 0 .179 0 .447-.09.626-.09.358-.09.805-.18 1.163-.09.984.09 1.878-.09 2.863v.09c0 .179-.088.268-.088.357 0 .269 0 .447.088.716v.627l-.178.178v.538c-.18.894.09 1.7 0 2.505 0 .179-.09.358-.09.537-.09 0-.09.089-.09.089 0 .09.357.805.447.895h-.447c0 .089-.179 0-.179 0 0 .268.179.179.089.358-.089.447-.268.895-.089 1.431.089.358 0 .716 0 1.074v.269c-.179 1.252-.447 2.505-.268 3.758.089.358.089.716 0 .984v.269c-.09.089-.09.179 0 .268 0 .448 0 .806-.09 1.164-.089.358-.178.715-.089 1.074.089.805.179 1.61.089 2.505 0 .269-.089.626-.178.895-.09 2.863-.09 5.727 0 8.59.178 1.789 0 3.668.178 5.457.179 2.058 0 4.116.09 6.174.179 2.684.268 5.368.447 7.963 0 .537.27.984.18 1.432-.09.447-.18.984 0 1.431 0 .089.268.089.268.179 0 0 .27 0 .357.09l-.535.358c.088.446.088.894.088 1.253 0 .088.09.268.09.357 0 .178 0 .357.09.447.09.895-.09 1.699.09 2.594v.18c.09.447.09.895.09 1.342-.09.357-.09.805 0 1.254 0 .447.088.895.268 1.252v.447h.09c.088.537-.18.984-.09 1.521 0 .088 0 .268.09.357 0 .268.088 1.432.357 1.521.18.088.447-.984.357-1.254v-.178c.18-.447.27-.807.09-1.254 0-.088 0-.268-.09-.357.09 0 .09 0 .09-.09h-.09c0-.09 0-.268.09-.357v-.09c0-.09 0-.09.09-.09.09-.178.09-.447.18-.625v-.09c.178-.537-.09-1.074.088-1.611.18-.984.18-1.789.27-2.773 0-.178-.09-.357-.09-.537.09-.178.09-.268.09-.357.268-.895.357-1.699.178-2.506 0-.356-.178-.625-.088-.894 0-.357.178-.626.178-1.073.18-.805 0-1.61.09-2.505 0-.268.178-.626.178-.895.09-1.789.359-3.399.27-5.189 0-.268-.09-.626 0-.895 0-.269 0-.626.09-.895s.09-.536.09-.805c-.09-.268-.18-.537-.18-.805.18-.626-.715-1.074-.805-1.7 0-.089.984-.179.984-.269h-.09v-.268c0-.179-.09-.448 0-.626.268-1.342.178-2.505.09-3.758v-.089-.179c0-.716-.09-1.521 0-2.327.088-.357.088-.805.088-1.163 0-.805 0-1.7-.088-2.505.088-.089.088-.179 0-.179 0-.179-.359-.358-.359-.537 0-.089.537-.268.447-.357-.088 0-.088-.09-.088-.09.002-.539.002-1.076.002-1.612zM138.711 61.016c0-.179-.357-.179-.357-.269.09-.716-.357-1.163-.895-1.521-.18 0-.357 0-.537-.089-.09-.089-.09-.268-.268-.447-.27-.179-.447-.089-.627.089h-.18c-.268-.089-.537 0-.537-.268-.088 0 .18-.269 0-.358-.268-.089-.625-.269-.893-.358-.18 0-.359-.179-.449 0l-.088.089c-.09 0-.27.089-.449.089 0-.089 0-.089-.088-.089 0-.269-.09-.537-.27-.447-.178 0-.268.179-.447.179h-.09c-.268-.179-.268-.447-.537-.537-.805-.268-1.609-.179-2.414-.447-.357-.089-.717-.089-1.074-.179-.178 0-.268-.089-.357-.089-.357-.179-.717-.089-.984.089v.09c-.09 0-.268.089-.357.089.178-.089 0-.269-.09-.447-.18-.089-.357-.089-.537-.089-.09.089-.18.179-.18.268h-.178c-.09.089-.18.089-.18.179.09.179.18.269.27.269.268.179.535-.09.805 0 .18.089.357.268.537.357.627.09 1.162.447 1.699.358.27 0 .447-.179.717 0 .268.089.357.358.535.447 1.164.448 2.236.895 3.311 1.611.537.357.984.984.717 1.7-.357.895-1.254 1.431-2.148 1.878-.178.089-.357.358-.535.537-.18.179-.447.268-.717.357h-.09c0-.089-.09-.179-.178-.179-.18 0-.359 0-.537.089-.09 0-.27 0-.357.089-.717.179-1.432.358-2.148.716h-.625c-.18 0-.27.089-.449.089-.178.179-.357.269-.625.358 0-.09-.09-.09-.09-.09-.18-.089-.357 0-.537.09h-.268c-.18.089-.27.268-.359.268h-.357c-.178 0-.357.089-.537.089v-.089c-.895 0-1.789.269-2.684.358v.089c-.268 0-.357.447-.627.537-.088.089-.268-.358-.357-.269 0-.089-.09-.089-.09-.089-.088-.179-.268 0-.357.089h-.268c-.09-.089-.18-.089-.27-.089h-.625l-1.611.268h-.18c-.088 0-.088.09-.088.09-.18.089-.27.089-.447.089-.09.09-.18.09-.27.09-.09-.09-.268-.179-.447-.09-.09 0-.09.09-.09.09h-.537l-.088-.09h-1.074c-.357 0-.805 0-1.164.09-.535.089-.895.447-1.43.447-.09 0-.09 0-.18-.09 0-.09 0-.09-.09-.179-.268-.089-.447.089-.715.179-.18.09-.359.09-.447.179h-.449c0-.089 0-.179-.088-.179-.18-.09-.359-.09-.627 0-.09-.09-.18-.09-.268 0-1.344.09-2.596 0-3.938 0-.178 0-.27 0-.447.09-.09.089.27.357.27.357-.092.09-.449 0-.449.09-.178.984-.178 1.879-.178 2.773.088.716.268 1.521.178 2.237 0 1.252.27 2.505.09 3.847 0 .179-.09.358-.09.537.09.268.18.447.18.626.178.984-.18 1.969 0 2.862 0 .359.178.717.178 1.075-.178 1.252-.088 2.505-.088 3.757 0 .179.088.358.088.626.182.358-.088.716 0 1.074 0 .089.092.179.092.269.178.447.178.895.178 1.342-.178.358-.27.626-.27.984.182.448.182.895.359 1.253.178.448.178.984.09 1.432 0 .179-.09.358-.09.537-.268 2.058.268 3.937.357 5.906 0 .178-.09.537-.09.805.18.627 0 1.162.27 1.789 0 .09.088.27.178.357 0 .09.09.18.09.18v.18c-.09.088-.09.268-.18.357-.088.09-.088.268 0 .447 0 .09 0 .18.09.357v.09c0 .18-.178.357-.09.537 0 .09 0 .09.09.18 0 .178 0 .715.09.805.09.178.09.715.18.715.357 0 .357-1.252.268-1.609.09-.18 0-.359 0-.627.09 0 .09-.09.09-.18 0-.178 0-.268-.09-.357 0-.09.09-.178.09-.268-.09-.09-.18-.27-.18-.359h.18c0-.088.178-.088.178-.178 0-.27.09-.537.09-.805 0-.359-.09-.717 0-1.074 0 0 .09-.09.09-.18s0-.18-.09-.18c.09-.178.09-.268 0-.445v-.537c.09 0 .18 0 .18-.09.09-.18.18-.357.18-.627.088-.09.088-.268.088-.537 0-.268-.268-.537-.178-.894.09-.09.178-.179.268-.358v-.447-.358-.447c.09-.179.09-.358 0-.626 0-.09.09-.269.09-.358l.09-.089v-.448c0-.179.09-.447.09-.626v-.089c.088-.269.088-.537.178-.805 0-.179.09-.358.09-.537.09-.537-.09-.895-.18-1.432-.088-.179 0-.358.09-.626.18-.269.27-.537.27-.716v-.089a.58.58 0 0 0 0-.537v-.448c0-.09 0-.089-.09-.089-.09-.358-.18-.626-.18-.895 0-.179.09-.358.18-.537.09 0 .268-.089.268-.179 0-.179 0-.269.09-.358v-.089-.269c0-.269 0-.447-.09-.626-.09-.09-.09-.18-.09-.269-.088-.09-.088-.179 0-.358l.09.09c0-.179.09-.358.09-.537.09-.357.18-.716.18-1.074v-1.521a.76.76 0 0 1 0-.626c.09-.269.09-.447.09-.716.088-.179.088-.269.088-.447.09-.716-.088-1.342-.088-1.969.088-.089.088-.179.088-.268v-.895c.09-.179.09-.358 0-.448 0-.179-.088-.357-.088-.537-.09-.179 0-.358.088-.537v-.358c.09-.179.09-.269 0-.447v-.358s.09-.089 0-.179v-.089c0-.09 0-.269.09-.358 0-.179.18-.179.27-.179.895 0 1.699.09 2.684 0 .09-.089.18-.089.357-.179.627-.269 1.164.179 1.789 0 .27 0 .627-.089.895-.089 1.342-.269 2.506-.269 3.848-.626.09 0 .09 0 .18-.089h.09l.088-.09c.18-.089.359-.178.447-.268 0-.09-.088-.179 0-.179 0-.089 0-.089.09-.179 0-.089 0-.089.09-.179 0-.089-.268-.268-.268-.447.088 0 .178-.447.178-.626 0 .089.359.357.359.537a.76.76 0 0 0 0 .626c.088.357.447.537.535.537.807.178 1.432-.269 2.148-.448.178 0 .268-.089.447-.089.268-.179.537-.179.805-.269.09 0 .18-.089.18-.089h.088c.09 0 .09 0 .18-.089.268-.09.537-.09.895-.179h.09c.447-.089.895-.089 1.342-.179.18-.089.357-.179.447-.268h.27c.088 0 .178-.179.178-.269v-.089h.18c.268-.179.537.089.895 0 .18 0 .447-.179.627-.269.268-.09.447-.268.625-.447.18-.09.27-.09.359-.179.447-.09.805-.09 1.162-.179.18 0 .268-.089.357-.179.18 0 .27-.089.447-.179.09 0 .18-.089.18-.179.09-.09.268.089.357 0 .09 0 .18-.09.268-.179.27 0 .447-.179.717-.448.09 0 .18-.089.268-.089h.18v-.089c.357-.089.627-.179.984-.269 0-.09.09-.09.09-.09.268-.089.537-.268.715-.537 0-.089.09-.179.09-.269h.09c.178 0 .447-.089.627-.179h.088c.627-.269 1.164-.716 1.611-1.252.09-.09.09-.179.09-.269v-.089c.09-.089 0-.626.09-.716 0-.179.447.179.715.089.357 0 0-.447.09-.626 0-.179.18-.179.357-.179.09-.089.09-.179.09-.179.079-.443-.01-.801-.19-1.159zm-8.768-4.026h.09-.09z" fill="#e30512"/><path d="M121.711 55.827c1.344.179 2.596.537 3.938.626.18 0 .27-.357.09-.357-.447-.269-.984-.179-1.521-.269-1.074-.179-1.969-.358-2.953-.179.089.179.268.089.446.179zM24.815 138.855v2.416c0 .09-.089.357-.089.627-.089.268-.179.447-.179.625-.179.717-.357 1.969-.895 5.369-1.252-5.816-1.432-6.264-1.521-6.531v-2.506c-3.668-.537-6.71-3.221-8.052-6.711-1.342-3.578-.358-8.23 1.968-10.824.895-1.074 2.327-1.791 3.4-2.238-2.237 1.432-5.458 4.922-4.474 9.842.537 2.953 3.132 5.637 5.726 6.264.089.09.806.357 1.432.447v-2.506-.805c-.089-.537-.179-.805-.805-.895.269-.18 1.61-.27 2.058-.27.447 0 1.878.09 2.326.27-.626.178-.715.537-.805.895 0 .09-.09.447-.09.895v2.416c.805-.09 1.521-.447 1.521-.447 2.595-.627 5.189-3.311 5.726-6.264.984-4.92-2.416-8.41-4.652-9.932 1.163.447 2.595 1.254 3.579 2.328 2.327 2.594 3.311 7.246 1.968 10.824-1.253 3.491-4.384 6.174-8.142 6.711zM58.814 119.977c-.09.27 0 .627 0 .896v.088l-.09 11.184c0 1.611-.447 2.773-.984 3.58-.268.447-.715.895-1.074 1.252-.537.447-1.163.895-1.789 1.252-.806.447-1.969.537-3.489.627 2.773-.268 3.847-2.863 3.847-2.863.358-.627.358-1.969.358-1.969v-13.062c0-1.342-.537-1.969-1.074-2.146h5.189c-.805.536-.626.536-.894 1.161zm-14.673 17c-.09-.09-2.147-2.059-2.147-4.832V120.873c0-.27 0-.717-.09-.984-.089-.449 0-.537-.715-1.074h4.921c-.626.537-1.164.895-.984 2.146v12.795c0 .09.089 1.432.358 2.236 0 0 1.163 2.596 3.847 2.773h.089c-3.221-.089-4.564-.984-5.279-1.788zM79.302 138.588h-.089c1.073-.09 1.073-1.254 1.073-1.432-.268-.627-.626-1.701-1.163-2.686-.448-.984-1.163-1.969-1.968-2.146-.09 0-.448 0-.716-.09h-.895c-.269-.09-.269-.09-.358-.09 0 0 .358-.178.448-.268.805-.18 1.968-.537 1.342-1.879-.447-.895-.984-2.236-1.521-3.49-.447-1.252-.984-2.146-1.342-2.326-.09-.088-.358.09-.537.447-.089.18-.269.627-.447.984-.447.895-.984 1.879-1.163 2.416l-.448.895c-.179.447-.357.895-.447 1.252-.179.896 0 1.791 1.253 1.791.268 0 .268.088.537.178-.269.09-.269.09-.537.09-.985 0-1.7.18-2.058.447-.269.09-.447.27-.626.537 0 0-.806 1.252-1.432 3.311l-.09.805c.09.717.716 1.164.984 1.254H64.54c1.252-.807 2.505-2.506 3.489-4.117.984-1.789 1.7-3.398 1.7-3.398 1.432-3.043 2.147-4.742 2.147-4.742.895-1.969 1.611-3.848 1.611-3.848l1.61-4.025 3.758 8.768c.269.715.537 1.162.537 1.252.09.09.716 1.521 1.432 3.043.716 1.52 1.521 3.311 1.968 4.205.716 1.609 2.147 2.504 2.953 2.863h-6.443v-.001zM110.797 119.082a960.031 960.031 0 0 0-6.531 8.5c1.789.805 6.621 3.668 5.994 11.453h-.268c-.627-6.801-8.857-10.021-10.201-10.469l.27-.18 11.898-11.004c-.535.985-.805 1.253-1.162 1.7zM96.66 129.998c-.179.357-.358.715-.358 1.074l-.089.088v5.279c0 1.432 1.074 2.059 1.342 2.148v-.09H91.74c.984-.357 1.074-.717 1.252-1.164.179-.178.179-.447.179-.625.09-.18.09-.18.09-.27v-15.566c0-1.434-.895-2.059-1.163-2.148h5.458c-.805.357-.984.895-1.163 1.699-.09.18-.09.27-.09.359v5.457c0 1.432 1.432 1.969 2.506 2.326-1.164.359-1.791.896-2.149 1.433zM128.154 118.635h6.709v6.264c-.982-4.026-5.099-5.817-6.709-6.264zm4.473 19.594c-.09.09-1.072.27-3.488.27 3.131-.357 5.904-5.189 6.709-6.979v7.336c-1.252-1.342-3.131-.627-3.221-.627zm-10.736-1.79l-.357-.357c-.895-.984-1.699-2.326-1.699-3.58v-11.629c-.09-.18-.359-1.434-2.059-2.238h6.711c-.627.27-1.611 1.074-1.611 2.326v5.547c0 1.074.537 1.521.627 1.611.268.18 1.699.357 2.684.447-1.699.18-2.684.715-2.684.805-.359.27-.537.805-.627 1.254 0 .178.09.178.09.178h-.09v1.699s0 1.432.447 2.953c.09.27 1.342 2.773 3.758 3.043-2.954-.09-4.474-1.342-5.19-2.059zM157.143 138.588l-5.547.088c1.52-.625 1.432-1.967 1.432-2.146v-15.746c.088-1.254-.537-1.791-1.432-2.148h5.816c-.896.357-1.074.895-1.344 1.701-.09.178-.09.268-.09.357v15.836c0 1.162.807 1.879 1.434 2.146l-.269-.088zM170.562 138.588l-5.547.088c1.521-.625 1.432-1.967 1.521-2.146v-15.746c0-1.254-.627-1.791-1.521-2.148h5.816c-.807.357-1.074.895-1.342 1.701 0 .178 0 .268-.09.357l.09 15.836c0 1.162.715 1.879 1.342 2.146l-.269-.088zM184.072 138.588l-5.547.088c1.521-.625 1.432-1.967 1.432-2.146v-15.746c0-1.254-.535-1.791-1.432-2.148h5.727c-.805.357-.984.895-1.252 1.701-.09.178-.09.268-.09.357v15.836c0 1.162.715 1.879 1.342 2.146l-.18-.088zM69.55 154.781c.358-.09.358-.537.358-.627-.09-.178-.179-.625-.448-1.072-.179-.359-.448-.717-.805-.807h-.269c-.089-.088-.269-.088-.269-.088h-.268l.179-.09c.358-.09.805-.18.537-.805-.089-.359-.357-.896-.537-1.344-.268-.537-.447-.895-.536-.984-.09 0-.179.09-.269.18 0 .09-.089.268-.179.447-.179.357-.357.717-.447.984 0 0-.089.18-.179.357-.089.09-.089.27-.179.447-.089.359 0 .717.537.717.089 0 .089.09.179.09h-.179c-.447 0-.716.088-.895.178-.09.09-.179.18-.179.27 0 0-.358.447-.626 1.342v.268c0 .27.268.447.358.537h-1.79c.537-.357.984-1.074 1.342-1.699.448-.717.716-1.342.716-1.342.626-1.254.895-1.881.895-1.881.358-.805.626-1.52.626-1.52l.626-1.611 1.521 3.49c.089.268.179.447.179.537.09 0 .358.537.627 1.162.268.627.626 1.342.715 1.701.358.625.895.982 1.252 1.162H69.55v.001zM82.703 150.756c-.089-.09-.089-.09-.268-.09h-.358c1.342-.447 2.147-1.164 2.147-1.969s-.537-1.611-1.879-1.789c.447-.09.537-.09.626-.09h.179c1.968 0 3.221 2.416 1.163 3.578.984.447 2.326 1.701 2.237 4.832-.805-3.488-3.668-4.472-3.847-4.472zm-1.7-3.133v2.148c0 .537.626.715.984.805-.447.18-.716.357-.806.627-.089.09-.178.268-.178.357v2.147c0 .447.357.627.447.627v.18h-2.505c.895-.359.895-.807.895-.807v-6.084c0-.537-.268-.625-.447-.715v-.09h2.685c-.897.268-.986.715-1.075.805zM98.361 146.818h2.684v2.416c-.447-1.521-2.059-2.236-2.684-2.416zm1.787 7.784c-.088 0-.445.18-1.43.18v-.09c1.252-.09 2.326-2.057 2.684-2.773v2.953c-.447-.538-1.254-.27-1.254-.27zm-4.293-.715c-.089 0-.089 0-.18-.09-.357-.447-.715-.984-.715-1.432v-4.652c0-.09-.09-.627-.806-.895h2.685c-.179.09-.626.357-.626.895v2.236c0 .447.268.627.268.627.089.09.716.18 1.074.18-.715.088-1.074.268-1.074.357a.492.492 0 0 0-.268.447V152.365s0 .537.179 1.164c0 .09.536 1.072 1.52 1.162-1.162 0-1.789-.447-2.057-.804zM115.807 147.355c0 .09-.09.268-.09.357v7.695l-5.457-6.711v5.189c0 .537.357.715.537.715v.18h-1.521v-.18c.27 0 .447-.357.447-.625v-6.264s0-.715-.447-.805v-.09h2.506c-.627.268-.627.537-.537.627l3.936 4.92v-4.652c0-.447-.715-.715-1.162-.895h2.146v.09c-.179.092-.269.27-.358.449zM129.764 154.781h-.088c.447-.09.447-.537.447-.627-.09-.178-.27-.625-.447-1.072-.18-.359-.447-.717-.807-.807h-.268c-.09-.088-.268-.088-.268-.088h-.27l.18-.09c.357-.09.805-.18.537-.805-.18-.359-.359-.896-.537-1.344-.27-.537-.447-.895-.537-.984-.09 0-.18.09-.27.18 0 .09-.088.268-.178.447-.18.357-.357.717-.447.984-.09 0-.09.18-.18.357-.09.09-.18.27-.18.447-.088.359 0 .717.537.717.09 0 .09.09.18.09h-.18c-.447 0-.715.088-.895.178-.09.09-.178.18-.178.27 0 0-.359.447-.627 1.342v.268c0 .27.268.447.357.537h-1.879c.537-.357 1.074-1.074 1.432-1.699.447-.717.717-1.342.717-1.342.535-1.254.805-1.881.805-1.881.357-.805.715-1.52.715-1.52l.627-1.611 1.521 3.49c.09.268.178.447.178.537.09 0 .27.537.627 1.162.268.627.537 1.342.717 1.701.357.625.893.982 1.162 1.162h-2.503v.001z" fill="#2b2b2d"/></g></svg>