<?xml version="1.0" standalone="no"?>
<!DOCTYPE svg PUBLIC "-//W3C//DTD SVG 20010904//EN"
 "http://www.w3.org/TR/2001/REC-SVG-20010904/DTD/svg10.dtd">
<svg version="1.0" xmlns="http://www.w3.org/2000/svg"
 width="64.000000pt" height="64.000000pt" viewBox="0 0 64.000000 64.000000"
 preserveAspectRatio="xMidYMid meet">
<metadata>
Created by potrace 1.16, written by Peter Selinger 2001-2019
</metadata>
<g transform="translate(0.000000,64.000000) scale(0.100000,-0.100000)"
fill="#000000" stroke="none">
<path d="M192 549 l-122 -72 0 -158 0 -158 124 -70 c68 -39 129 -71 136 -71 7
0 68 32 136 71 l124 70 0 159 0 158 -124 71 c-68 39 -129 71 -137 71 -8 0 -69
-32 -137 -71z m251 -23 l109 -63 -38 -24 -37 -23 -74 40 -74 39 -67 -37 -68
-37 -44 20 -45 20 80 46 c44 25 94 54 110 64 17 10 32 19 35 19 3 0 54 -29
113 -64z m-273 -221 l0 -94 75 -41 c71 -39 75 -43 75 -77 0 -19 -4 -33 -8 -31
-4 2 -56 30 -115 63 l-107 60 0 128 0 127 40 -20 40 -20 0 -95z m400 3 l0
-123 -110 -63 c-60 -34 -112 -62 -115 -62 -3 0 -5 15 -5 34 0 33 4 37 75 76
l75 41 0 89 0 88 33 20 c17 11 35 21 40 21 4 1 7 -54 7 -121z"/>
</g>
</svg>
